# AST/ASF file generated using VICON BodyLanguage
# -----------------------------------------------
:version 1.10
:name VICON
:units
  mass 1.0
  length 0.45
  angle deg
:documentation
   .ast/.asf automatically generated from VICON data using
   VICON BodyBuilder and BodyLanguage model FoxedUp or BRILLIANT.MOD
:root
   order TX TY TZ RX RY RZ
   axis XYZ
   position 0 0 0  
   orientation 0 0 0 
:bonedata
  begin
     id 1 
     name lhipjoint
     direction 0.677091 -0.635792 0.370561 
     length 2.74323 
     axis 0 0 0  XYZ
  end
  begin
     id 2 
     name lfemur
     direction 0.34202 -0.939693 0  
     length 7.44995  
     axis 0 0 20  XYZ
    dof rx ry rz
    limits (-160.0 20.0)
           (-70.0 70.0)
           (-60.0 70.0)
  end
  begin
     id 3 
     name ltibia
     direction 0.34202 -0.939693 0   
     length 7.34467   
     axis 0 0 20   XYZ
    dof rx
    limits (-10.0 170.0)
  end
  begin
     id 4 
     name lfoot
     direction 0.101953 -0.280114 0.954537   
     length 1.72105   
     axis -90 7.62852e-016 20   XYZ
    dof rx rz
    limits (-45.0 90.0)
           (-70.0 20.0)
  end
  begin
     id 5 
     name ltoes
     direction 1.53537e-011 -4.21915e-011 1   
     length 0.865872   
     axis -90 7.62852e-016 20   XYZ
    dof rx
    limits (-90.0 20.0)
  end
  begin
     id 6 
     name rhipjoint
     direction -0.695735 -0.620586 0.361699   
     length 2.81045  
     axis 0 0 0  XYZ 
  end
  begin
     id 7 
     name rfemur
     direction -0.34202 -0.939693 0   
     length 7.29387   
     axis 0 0 -20   XYZ
    dof rx ry rz
    limits (-160.0 20.0)
           (-70.0 70.0)
           (-70.0 60.0)
  end
  begin
     id 8 
     name rtibia
     direction -0.34202 -0.939693 0   
     length 7.44935   
     axis 0 0 -20   XYZ
    dof rx
    limits (-10.0 170.0)
 end
 begin
     id 9 
     name rfoot
     direction -0.104163 -0.286184 0.952496   
     length 1.77731  
     axis -90 -7.62852e-016 -20   XYZ
    dof rx rz
    limits (-45.0 90.0)
           (-20.0 70.0)
  end
  begin
     id 10 
     name rtoes
     direction -1.5355e-011 -4.21888e-011 1   
     length 0.892424   
     axis -90 -7.62852e-016 -20   XYZ
    dof rx
    limits (-90.0 20.0)
  end
  begin
     id 11 
     name lowerback
     direction 0.0100202 0.997226 -0.0737589   
     length 2.16892   
     axis 0 0 0   XYZ
    dof rx ry rz
    limits (-20.0 45.0)
           (-30.0 30.0)
           (-30.0 30.0)
  end
  begin
     id 12 
     name upperback
     direction 0.00432398 0.999988 -0.00215019   
     length 2.17326   
     axis 0 0 0   XYZ
    dof rx ry rz
    limits (-20.0 45.0)
           (-30.0 30.0)
           (-30.0 30.0)
  end
  begin
     id 13 
     name thorax
     direction -0.00195047 0.999485 0.0320434   
     length 2.18139   
     axis 0 0 0   XYZ
    dof rx ry rz
    limits (-20.0 45.0)
           (-30.0 30.0)
           (-30.0 30.0)
  end
  begin
     id 14 
     name lowerneck
     direction 0.00782762 0.986241 0.165128   
     length 1.88415   
     axis 0 0 0   XYZ
    dof rx ry rz
    limits (-20.0 45.0)
           (-30.0 30.0)
           (-30.0 30.0)
  end
  begin
     id 15 
     name upperneck
     direction 0.00988667 0.981098 -0.193258   
     length 1.9242   
     axis 0 0 0   XYZ
    dof rx ry rz
    limits (-20.0 45.0)
           (-30.0 30.0)
           (-30.0 30.0)
  end
  begin
     id 16
     name head
     direction 0.00252199 0.996513 -0.0833958  
     length 1.93887  
     axis 0 0 0   XYZ
    dof rx ry rz
    limits (-20.0 45.0)
           (-30.0 30.0)
           (-30.0 30.0)
  end
  begin
     id 17 
     name lclavicle
     direction 0.929492 0.368193 -0.0218667  
     length 3.5955  
     axis 0 0 0   XYZ
    dof ry rz
    limits (-20.0 10.0)
           (0.0 20.0)
  end
  begin
     id 18 
     name lhumerus
     direction 1 -4.48972e-011 1.41911e-027   
     length 5.2795   
     axis 180 -30 -90   XYZ
    dof rx ry rz
    limits (-60.0 90.0)
           (-90.0 90.0)
           (-90.0 90.0)
  end
  begin
     id 19
     name lradius
     direction 1 -4.48963e-011 7.05772e-027   
     length 3.53504   
     axis 180 -30 -90   XYZ
    dof rx
    limits (-10.0 170.0)
  end
  begin
     id 20
     name lwrist
     direction 1 -4.48957e-011 9.54866e-027   
     length 1.76752   
     axis -7.69462e-015 90 90   XYZ
    dof ry
    limits (-180.0 0.0)
 end
  begin
     id 21 
     name lhand
     direction 1 -4.48979e-011 1.90973e-026   
     length 0.667948   
     axis -1.21857e-014 90 90   XYZ
    dof rx rz
    limits (-90.0 90.0)
           (-45.0 45.0)
  end
  begin
     id 22 
     name lfingers
     direction 1 -4.48987e-011 3.81946e-026   
     length 0.538517   
     axis -2.43714e-014 90 90   XYZ
    dof rx
    limits (0.0 90.0)
  end
  begin
     id 23
     name lthumb
     direction 0.707107 -6.34962e-011 0.707107   
     length 0.773206   
     axis -90 45 2.85299e-015   XYZ
    dof rx rz
    limits (-45.0 45.0)
           (-45.0 45.0)
  end
  begin
     id 24 
     name rclavicle
     direction -0.898763 0.414256 -0.143584   
     length 3.5176  
     axis 0 0 0   XYZ 
    dof ry rz
    limits (-10.0 20.0)
           (-20.0 0.0)
  end
  begin
     id 25 
     name rhumerus
     direction -1 -4.48971e-011 1.129e-027  
     length 5.25035   
     axis 180 30 90   XYZ
    dof rx ry rz
    limits (-90.0 60.0)
           (-90.0 90.0)
           (-90.0 90.0)
  end
  begin
     id 26 
     name rradius
     direction -1 -4.48955e-011 6.34664e-027   
     length 3.58884   
     axis 180 30 90   XYZ
    dof rx
    limits (-10.0 170.0)
  end
  begin
     id 27 
     name rwrist
     direction -1 -4.48966e-011 9.54866e-027   
     length 1.79442   
     axis -7.69462e-015 -90 -90   XYZ
    dof ry
    limits (-180.0 0.0)
  end
  begin
     id 28
     name rhand
     direction -1 -4.48973e-011 1.90973e-026   
     length 0.779235   
     axis -1.21857e-014 -90 -90   XYZ
    dof rx rz
    limits (-90.0 90.0)
           (-45.0 45.0)
  end
  begin
     id 29
     name rfingers
     direction -1 -4.48984e-011 3.81946e-026   
     length 0.62824   
     axis -2.43714e-014 -90 -90   XYZ
    dof rx
    limits (0.0 90.0)
  end
  begin
     id 30
     name rthumb
     direction -0.707107 -6.34968e-011 0.707107   
     length 0.90203   
     axis -90 -45 -2.85299e-015   XYZ
    dof rx rz
    limits (-45.0 45.0)
           (-45.0 45.0)
  end
:hierarchy
  begin
    root lhipjoint rhipjoint lowerback
    lhipjoint lfemur
    lfemur ltibia
    ltibia lfoot
    lfoot ltoes
    rhipjoint rfemur
    rfemur rtibia
    rtibia rfoot
    rfoot rtoes
    lowerback upperback
    upperback thorax
    thorax lowerneck lclavicle rclavicle
    lowerneck upperneck
    upperneck head
    lclavicle lhumerus
    lhumerus lradius
    lradius lwrist
    lwrist lhand lthumb
    lhand lfingers
    rclavicle rhumerus
    rhumerus rradius
    rradius rwrist
    rwrist rhand rthumb
    rhand rfingers
  end

#!OML:ASF I:\Random Stuff\random\construction\7_22_03\Session 2\subj1.ASF
:FULLY-SPECIFIED
:DEGREES
140
root -16.468 17.423 -2.87204 -164.193 78.4819 -172.709
lowerback 6.59587 1.29109 -4.35987
upperback -0.0777152 1.40767 0.435108
thorax -3.8996 0.790847 2.76045
lowerneck -20.0387 -8.03867 -7.04416
upperneck 37.0336 -10.4766 5.55884
head 17.8476 -4.01982 1.68191
rclavicle 4.17448e-015 -1.59028e-014
rhumerus -23.8684 0.94006 -74.5311
rradius 50.1517
rwrist 1.27555
rhand -35.0507 29.2602
rfingers 7.12502
rthumb -8.19368 -0.56093
lclavicle 4.17448e-015 -1.59028e-014
lhumerus -31.3216 -2.6341 84.3774
lradius 32.3105
lwrist 24.6492
lhand -23.2122 56.3089
lfingers 7.12502
lthumb 3.23815 86.2641
rfemur -27.0981 3.8156 14.0029
rtibia -1.59028e-014
rfoot -5.88445 -17.2578
rtoes -5.4284
lfemur -2.84847 -8.48373 -20.1119
ltibia 17.3112
lfoot -20.231 1.48579
ltoes -20.4306
141
root -16.2996 17.3965 -2.84351 -167.38 77.9375 -176.016
lowerback 6.59295 1.14531 -4.55271
upperback -0.0670044 1.20077 0.475325
thorax -3.87513 0.691718 2.93218
lowerneck -19.8101 -8.3633 -7.49357
upperneck 36.9224 -10.8676 5.711
head 17.8201 -4.22623 1.744
rclavicle 3.93594e-014 3.77691e-015
rhumerus -23.2165 0.768656 -73.5832
rradius 50.2747
rwrist 1.10405
rhand -34.2892 27.8726
rfingers 7.12502
rthumb -7.45871 -1.97588
lclavicle 3.93594e-014 3.77691e-015
lhumerus -31.2806 -2.72868 84.7821
lradius 32.8841
lwrist 24.1929
lhand -22.6901 55.8347
lfingers 7.12502
lthumb 3.74234 85.7816
rfemur -26.7779 4.16031 13.064
rtibia -3.49861e-014
rfoot -5.42886 -17.4753
rtoes -6.50506
lfemur -2.11241 -8.74378 -20.5139
ltibia 16.7278
lfoot -20.2078 0.91793
ltoes -19.2006
142
root -16.121 17.3631 -2.81515 -170.197 77.429 -178.969
lowerback 6.4953 1.04744 -4.69697
upperback -0.0757961 1.0645 0.488074
thorax -3.8208 0.625892 3.04174
lowerneck -19.4916 -8.66046 -7.84183
upperneck 36.7516 -11.2631 5.8747
head 17.7327 -4.42147 1.79531
rclavicle -4.37078e-014 -6.95746e-016
rhumerus -22.6296 0.426985 -72.6836
rradius 50.1834
rwrist 1.51035
rhand -33.7949 26.8783
rfingers 7.12502
rthumb -6.98154 -2.98652
lclavicle -4.37078e-014 -6.95746e-016
lhumerus -31.2377 -2.70131 85.1158
lradius 33.394
lwrist 23.9695
lhand -22.2243 55.3082
lfingers 7.12502
lthumb 4.19215 85.2467
rfemur -27.0512 4.67183 12.2996
rtibia 1.59647
rfoot -4.95905 -17.7656
rtoes -9.86523
lfemur -1.24517 -9.15645 -20.9469
ltibia 15.9908
lfoot -20.5546 0.423455
ltoes -13.0606
143
root -15.9371 17.337 -2.78417 -172.647 76.8902 -181.597
lowerback 6.33576 0.955883 -4.78781
upperback -0.108977 0.942919 0.490285
thorax -3.75648 0.566217 3.1089
lowerneck -19.1658 -8.93645 -8.16464
upperneck 36.5617 -11.6422 6.05121
head 17.6337 -4.60557 1.85189
rclavicle -8.38623e-015 5.81445e-015
rhumerus -21.9748 0.0346045 -71.8376
rradius 49.7549
rwrist 2.25515
rhand -33.5326 26.5871
rfingers 7.12502
rthumb -6.7284 -3.28595
lclavicle -8.38623e-015 5.81445e-015
lhumerus -31.3997 -2.9187 85.4596
lradius 34.1689
lwrist 24.3469
lhand -22.1378 55.0416
lfingers 7.12502
lthumb 4.27568 84.9785
rfemur -27.9217 5.26711 11.6977
rtibia 4.37848
rfoot -4.23931 -18.4014
rtoes -13.1222
lfemur -0.410821 -9.4374 -21.3394
ltibia 15.1977
lfoot -19.5467 0.465454
ltoes -16.0629
144
root -15.7394 17.3287 -2.74676 -174.038 76.2475 -183.143
lowerback 6.12804 0.827797 -4.68801
upperback -0.15314 0.791257 0.566576
thorax -3.67141 0.488166 3.14843
lowerneck -18.9165 -9.1845 -8.45688
upperneck 36.4616 -11.972 6.187
head 17.5943 -4.76598 1.89524
rclavicle -2.96872e-014 4.79568e-015
rhumerus -21.621 -0.369587 -71.0061
rradius 49.6611
rwrist 3.39141
rhand -33.273 26.4582
rfingers 7.12502
rthumb -6.47772 -3.42269
lclavicle -2.96872e-014 4.79568e-015
lhumerus -31.3547 -3.00083 85.8904
lradius 34.7246
lwrist 24.6891
lhand -22.4927 55.0976
lfingers 7.12502
lthumb 3.93297 85.0411
rfemur -28.2355 5.78244 11.2762
rtibia 5.81591
rfoot -2.43242 -19.5265
rtoes -13.2654
lfemur 0.409424 -9.59235 -21.4473
ltibia 14.4837
lfoot -19.2883 0.0807961
ltoes -13.2178
145
root -15.5352 17.3264 -2.70647 -173.949 75.5916 -183.159
lowerback 5.93277 0.693615 -4.20951
upperback -0.199939 0.660329 0.746188
thorax -3.59426 0.414517 3.07892
lowerneck -18.6855 -9.41406 -8.75427
upperneck 36.3903 -12.273 6.32694
head 17.5754 -4.91304 1.94783
rclavicle 3.03892e-014 -2.08724e-015
rhumerus -21.5504 -0.953423 -70.1876
rradius 49.8812
rwrist 5.13478
rhand -32.8786 26.0742
rfingers 7.12502
rthumb -6.09699 -3.81808
lclavicle 3.03892e-014 -2.08724e-015
lhumerus -31.565 -3.25928 86.3584
lradius 35.5367
lwrist 25.1621
lhand -22.9959 55.4895
lfingers 7.12502
lthumb 3.44703 85.4413
rfemur -28.4336 6.31734 11.186
rtibia 6.9891
rfoot -0.58122 -20.8784
rtoes -11.0669
lfemur 1.27495 -9.80385 -21.1665
ltibia 13.7683
lfoot -18.4532 0.143016
ltoes -17.8492
146
root -15.3374 17.3256 -2.66403 -173.289 74.9965 -182.566
lowerback 5.85182 0.589923 -3.53738
upperback -0.239119 0.579247 0.959292
thorax -3.57697 0.36399 2.92899
lowerneck -18.462 -9.64156 -9.07089
upperneck 36.3089 -12.5879 6.52766
head 17.5654 -5.05962 2.02748
rclavicle 6.17723e-014 -1.72943e-014
rhumerus -21.2637 -1.40677 -69.3942
rradius 49.5962
rwrist 6.9923
rhand -32.6893 25.926
rfingers 7.12502
rthumb -5.9142 -3.97142
lclavicle 6.17723e-014 -1.72943e-014
lhumerus -31.5437 -2.33256 86.1146
lradius 35.5234
lwrist 22.1441
lhand -18.9082 53.2334
lfingers 7.12502
lthumb 7.39379 83.0842
rfemur -28.377 6.93468 11.2605
rtibia 7.66479
rfoot 1.8949 -21.9051
rtoes -11.326
lfemur 2.02021 -10.0849 -20.7109
ltibia 13.2724
lfoot -18.3077 -0.0893998
ltoes -15.16
147
root -15.1432 17.3276 -2.62144 -173.12 74.4378 -182.437
lowerback 5.86448 0.48668 -2.95911
upperback -0.24112 0.489257 1.14624
thorax -3.5752 0.310743 2.80491
lowerneck -18.3795 -9.81469 -9.26701
upperneck 36.2312 -12.8253 6.64169
head 17.5635 -5.16822 2.0593
rclavicle 3.73218e-014 -9.14409e-015
rhumerus -20.7546 -1.73518 -68.6569
rradius 48.898
rwrist 8.73874
rhand -32.8709 26.2914
rfingers 7.12502
rthumb -6.08959 -3.60107
lclavicle 3.73218e-014 -9.14409e-015
lhumerus -31.5982 -2.06129 86.2612
lradius 36.0904
lwrist 22.5524
lhand -18.4624 52.5609
lfingers 7.12502
lthumb 7.82409 82.3961
rfemur -28.129 7.58076 11.232
rtibia 8.06448
rfoot 4.66398 -22.5585
rtoes -13.7742
lfemur 2.58812 -10.2664 -20.3618
ltibia 13.118
lfoot -17.4676 -0.145556
ltoes -18.3672
148
root -14.9483 17.3461 -2.58019 -173.245 73.9994 -182.605
lowerback 5.88958 0.415659 -2.44665
upperback -0.240627 0.43722 1.30784
thorax -3.58198 0.277677 2.68807
lowerneck -18.3317 -9.932 -9.37475
upperneck 36.1811 -12.9799 6.68787
head 17.5594 -5.23881 2.06391
rclavicle -1.19271e-014 1.11319e-014
rhumerus -20.3736 -2.317 -67.9813
rradius 48.3084
rwrist 10.737
rhand -33.2254 26.5889
rfingers 7.12502
rthumb -6.43177 -3.29344
lclavicle -1.19271e-014 1.11319e-014
lhumerus -31.8813 -2.83158 87.0957
lradius 37.239
lwrist 25.1131
lhand -21.9712 54.2962
lfingers 7.12502
lthumb 4.43656 84.2298
rfemur -27.9666 8.34465 11.1228
rtibia 8.6123
rfoot 7.67328 -22.9235
rtoes -16.9301
lfemur 3.094 -10.3639 -20.0451
ltibia 13.1892
lfoot -16.8602 -0.680378
ltoes -17.0709
149
root -14.7591 17.3622 -2.53958 -173.543 73.796 -182.994
lowerback 5.91858 0.429673 -1.9891
upperback -0.267552 0.493556 1.43114
thorax -3.62669 0.299887 2.5527
lowerneck -18.2358 -10.0543 -9.51185
upperneck 36.168 -13.1527 6.7864
head 17.5755 -5.31164 2.09632
rclavicle -1.50082e-014 -4.37326e-015
rhumerus -20.0715 -2.97786 -67.3175
rradius 47.6668
rwrist 12.8484
rhand -33.7285 26.7118
rfingers 7.12502
rthumb -6.9175 -3.15515
lclavicle -1.50082e-014 -4.37326e-015
lhumerus -31.9911 -2.68606 87.4131
lradius 37.643
lwrist 25.0913
lhand -21.8544 54.0578
lfingers 7.12502
lthumb 4.54941 83.989
rfemur -28.2257 9.20836 10.6805
rtibia 9.57232
rfoot 10.7491 -22.8643
rtoes -20.6298
lfemur 3.46766 -10.1666 -19.7917
ltibia 13.3197
lfoot -15.4699 -1.07941
ltoes -24.0854
150
root -14.5819 17.3825 -2.50448 -174.106 73.8617 -183.705
lowerback 5.9786 0.517118 -1.54811
upperback -0.286181 0.644449 1.49382
thorax -3.68424 0.368566 2.35503
lowerneck -18.2118 -10.1595 -9.57609
upperneck 36.1573 -13.3044 6.83697
head 17.5954 -5.37151 2.09657
rclavicle 3.97569e-016 1.39149e-014
rhumerus -19.6282 -3.62942 -66.7238
rradius 46.7485
rwrist 14.7302
rhand -34.2859 27.0481
rfingers 7.12502
rthumb -7.45551 -2.80048
lclavicle 3.97569e-016 1.39149e-014
lhumerus -31.9589 -2.32838 87.7062
lradius 37.8541
lwrist 25.1765
lhand -21.8121 53.9866
lfingers 7.12502
lthumb 4.59017 83.9169
rfemur -28.705 10.2643 9.99357
rtibia 10.566
rfoot 12.3765 -22.9984
rtoes -21.5226
lfemur 3.61343 -9.84253 -19.6917
ltibia 13.6641
lfoot -14.1895 -1.60525
ltoes -28.7653
151
root -14.3961 17.4159 -2.46327 -174.819 73.804 -184.552
lowerback 5.95242 0.54099 -1.20585
upperback -0.263996 0.704563 1.5566
thorax -3.64617 0.392632 2.22184
lowerneck -18.1777 -10.1936 -9.56347
upperneck 36.1089 -13.3685 6.87299
head 17.5712 -5.39002 2.09741
rclavicle -2.88238e-014 -7.15625e-015
rhumerus -19.1325 -4.23036 -66.2597
rradius 45.7398
rwrist 16.2826
rhand -34.7507 27.3921
rfingers 7.12502
rthumb -7.90419 -2.44011
lclavicle -2.88238e-014 -7.15625e-015
lhumerus -31.8711 -1.73291 87.9731
lradius 37.9073
lwrist 25.2662
lhand -22.0947 54.262
lfingers 7.12502
lthumb 4.31732 84.198
rfemur -28.8029 8.33188 11.0375
rtibia 11.7498
rfoot 11.3731 -20.6333
rtoes -19.7048
lfemur 3.746 -9.43489 -19.5193
ltibia 14.0719
lfoot -12.8173 -2.57329
ltoes -31.1484
